<?xml version="1.0" encoding="UTF-8"?>
<svg version="1.1" xmlns="http://www.w3.org/2000/svg" width="473" height="120">
<path d="M0 0 C2.125 0.375 2.125 0.375 4 1 C4.26489323 12.55228814 3.8134236 23.9737441 3 35.5 C2.37451047 44.41863878 1.80540738 53.30620944 1.8125 62.25 C1.8115332 63.39178711 1.8115332 63.39178711 1.81054688 64.55664062 C1.84231577 67.638223 2.01822282 70.05466846 3 73 C4.14926266 72.04578192 5.29430541 71.08647955 6.4375 70.125 C7.39462891 69.32449219 7.39462891 69.32449219 8.37109375 68.5078125 C10.10805004 67.0777243 10.10805004 67.0777243 11 65 C11.66 65 12.32 65 13 65 C13.4021875 63.9171875 13.4021875 63.9171875 13.8125 62.8125 C15 60 15 60 16.4375 57.625 C17.72524873 55.46158213 18.56215094 53.5810926 19.4375 51.25 C21 48 21 48 23.0625 46.9375 C25 47 25 47 27 49 C27.37890625 50.98364258 27.37890625 50.98364258 27.5625 53.39453125 C27.63726562 54.26787109 27.71203125 55.14121094 27.7890625 56.04101562 C27.89347656 57.41290039 27.89347656 57.41290039 28 58.8125 C28.48792648 67.79292347 28.48792648 67.79292347 32.3125 75.75 C36.42438563 78.79584121 42.09395411 78.25717176 47 78 C49.84715499 77.56645435 49.84715499 77.56645435 52 77 C52.04125 75.845 52.0825 74.69 52.125 73.5 C53.1897318 65.81775786 58.10008535 61.47183001 64.03637695 56.97607422 C64.64312256 56.53021973 65.24986816 56.08436523 65.875 55.625 C66.45145264 55.19590332 67.02790527 54.76680664 67.62182617 54.32470703 C71.95028239 51.29133654 75.77904676 49.90016435 81 49 C83.9375 50.0625 83.9375 50.0625 86 52 C86.8125 54.6875 86.8125 54.6875 87 57 C87.99 56.34 88.98 55.68 90 55 C91.32 55 92.64 55 94 55 C94.75 56.625 94.75 56.625 95 59 C93.1875 62.0625 93.1875 62.0625 91 65 C88.94074319 68.08888522 88.7609626 68.70935927 88.875 72.1875 C88.91625 73.445625 88.9575 74.70375 89 76 C93.95 76.66 98.9 77.32 104 78 C104.99 76.02 104.99 76.02 106 74 C106.53238281 74.32097656 107.06476563 74.64195313 107.61328125 74.97265625 C117.25955155 79.12481515 129.81956864 75.21083286 139.18261719 71.75732422 C142.94328161 70.19021231 146.40166274 68.17484334 149 65 C149.71505963 62.89942373 149.71505963 62.89942373 150 61 C143.5907226 56.94515103 138.68315498 55.27979884 131.0625 56.9375 C129.70524628 57.27964576 128.34982749 57.62963917 127 58 C126.87882813 58.73605469 126.75765625 59.47210938 126.6328125 60.23046875 C126.46523438 61.20628906 126.29765625 62.18210938 126.125 63.1875 C125.96257812 64.15042969 125.80015625 65.11335938 125.6328125 66.10546875 C125.01960483 68.91032604 124.14333657 71.37224747 123 74 C120.625 73.75 120.625 73.75 118 73 C116.21003457 70.2216847 115.74839027 68.02778188 115.74121094 64.75732422 C115.73490662 63.92901093 115.72860229 63.10069763 115.72210693 62.24728394 C115.72817963 60.9144487 115.72817963 60.9144487 115.734375 59.5546875 C115.73246155 58.62963409 115.7305481 57.70458069 115.72857666 56.75149536 C115.72721637 54.79298633 115.73090192 52.83446824 115.73925781 50.87597656 C115.74988657 47.90668942 115.73939511 44.93801743 115.7265625 41.96875 C115.72788555 40.05989452 115.73045093 38.15103941 115.734375 36.2421875 C115.73032654 35.36577606 115.72627808 34.48936462 115.72210693 33.58639526 C115.76721437 27.52448875 116.61787384 21.89900902 118 16 C119.65 16 121.3 16 123 16 C123.33 28.21 123.66 40.42 124 53 C126.475 51.515 126.475 51.515 129 50 C136.31087862 48.22562393 143.19391789 48.81073232 150 52 C153.8908229 54.4096171 156.4012692 56.68849443 158.3125 60.875 C157.82218953 65.77810473 155.46046124 68.6007257 152 72 C141.49664469 80.10524409 126.26849611 84.8123569 113 84 C112.01 83.67 111.02 83.34 110 83 C108.44331506 82.90975739 106.88349052 82.86850155 105.32421875 82.859375 C104.41349609 82.84003906 103.50277344 82.82070312 102.56445312 82.80078125 C100.65841287 82.76713763 98.75203848 82.74871414 96.84570312 82.74609375 C92.36526584 82.62611023 89.02785668 82.53372012 85.45703125 79.640625 C83 77 83 77 81 74 C80.43152344 74.32613281 79.86304688 74.65226562 79.27734375 74.98828125 C63.49598661 83.91963362 63.49598661 83.91963362 56.25 82.4375 C53.04420958 82.00595129 51.33930119 82.271118 48.25 83 C41.99214155 84.38748898 36.14440359 84.32763707 30.1875 81.8125 C24.11311255 76.77943612 22.14539376 72.69294314 21 65 C20.34 65.845625 19.68 66.69125 19 67.5625 C15.73169639 71.49191346 11.94208528 74.76325801 8 78 C7.33355469 78.55171875 6.66710937 79.1034375 5.98046875 79.671875 C3.48222975 81.34722266 1.20177767 81.48954903 -1.75 81.75 C-4.10772222 82.01196914 -6.3176167 82.51601448 -8.625 83.0625 C-21.09241774 85.55218251 -32.04534954 83.42150341 -44 80 C-45.33157453 79.65970873 -46.66392082 79.32215107 -48 79 C-48.103125 79.639375 -48.20625 80.27875 -48.3125 80.9375 C-48.539375 81.618125 -48.76625 82.29875 -49 83 C-49.99 83.33 -50.98 83.66 -52 84 C-52.99 83.505 -52.99 83.505 -54 83 C-54 82.34 -54 81.68 -54 81 C-54.55236328 81.09087891 -55.10472656 81.18175781 -55.67382812 81.27539062 C-87.4668122 86.41178822 -87.4668122 86.41178822 -98 81 C-99.78730266 77.42539469 -99.57363688 73.84837948 -99 70 C-95.65692211 60.58757036 -90.2855899 53.45181382 -81.9375 48 C-78.32088642 46.7688124 -75.79104692 46.43836342 -72 47 C-68.63996897 49.75694854 -68.07162198 51.51456216 -67.4375 55.8125 C-67.85798415 63.26908562 -73.20754563 68.54329012 -78.25390625 73.5546875 C-80.07637168 75.06321593 -81.87600303 75.97817783 -84 77 C-79.52084672 77.02886338 -75.04171709 77.04675187 -70.5625 77.0625 C-69.28310547 77.07087891 -68.00371094 77.07925781 -66.68554688 77.08789062 C-64.86313477 77.09272461 -64.86313477 77.09272461 -63.00390625 77.09765625 C-61.87799072 77.10289307 -60.7520752 77.10812988 -59.59204102 77.11352539 C-57.07029129 77.29545448 -57.07029129 77.29545448 -56 76 C-55.92446094 74.45352654 -55.91692427 72.90364928 -55.9375 71.35546875 C-55.94620117 70.37835938 -55.95490234 69.40125 -55.96386719 68.39453125 C-55.97579102 67.33621094 -55.98771484 66.27789062 -56 65.1875 C-56.06573128 48.19849351 -55.91463338 32.36687209 -51 16 C-49.35 15.67 -47.7 15.34 -46 15 C-44.8589841 18.43923233 -45.15945415 20.89977677 -45.8125 24.4375 C-48.1986772 38.86819071 -49.40436567 53.37544172 -49 68 C-47.30615884 66.72961913 -45.61239007 65.45914166 -43.91894531 64.18823242 C-42.46641642 63.09948975 -41.01262727 62.01242651 -39.55761719 60.92700195 C-36.14287586 58.37648993 -32.74392447 55.8149026 -29.40625 53.1640625 C-28.6004248 52.53262329 -28.6004248 52.53262329 -27.77832031 51.88842773 C-26.32999864 50.75036155 -24.89126103 49.60012929 -23.453125 48.44921875 C-21 47 -21 47 -18.671875 47.26953125 C-18.12015625 47.51058594 -17.5684375 47.75164062 -17 48 C-17.32607857 51.01518061 -17.60149708 52.59542486 -19.76245117 54.78930664 C-20.51502197 55.32418701 -21.26759277 55.85906738 -22.04296875 56.41015625 C-22.86990234 57.00763672 -23.69683594 57.60511719 -24.54882812 58.22070312 C-25.41958984 58.82849609 -26.29035156 59.43628906 -27.1875 60.0625 C-28.03892578 60.67416016 -28.89035156 61.28582031 -29.76757812 61.91601562 C-33.31631482 64.45474838 -36.8850816 66.94182442 -40.55078125 69.30859375 C-43.08480433 70.76806603 -43.08480433 70.76806603 -44 73 C-42.14703165 73.48377991 -40.29255559 73.96178636 -38.4375 74.4375 C-37.40496094 74.70433594 -36.37242187 74.97117187 -35.30859375 75.24609375 C-28.13819575 76.87996248 -21.39489464 77.12765457 -14.0625 77.0625 C-13.09248047 77.05798828 -12.12246094 77.05347656 -11.12304688 77.04882812 C-8.7486324 77.0371315 -6.37434979 77.02074086 -4 77 C-4.00222061 76.44306458 -4.00444122 75.88612915 -4.00672913 75.31231689 C-4.0292145 69.40515804 -4.04408241 63.49801172 -4.05493164 57.59082031 C-4.05989611 55.39940902 -4.06666988 53.20800093 -4.07543945 51.01660156 C-4.11853427 39.95390776 -4.10205902 28.91106606 -3.55859375 17.859375 C-3.51960464 17.06154602 -3.48061554 16.26371704 -3.44044495 15.44171143 C-2.73401594 2.73401594 -2.73401594 2.73401594 0 0 Z M-85.6171875 59.578125 C-89.11111743 63.43709239 -91.40626115 67.03128477 -93 72 C-92.6189159 74.15707976 -92.6189159 74.15707976 -92 76 C-84.59398142 71.90165164 -78.50563873 67.96342625 -75 60 C-74.49118869 56.61881681 -74.49118869 56.61881681 -75 54 C-79.60168638 54 -82.44071241 56.47837637 -85.6171875 59.578125 Z M67 63 C65.576875 64.0209375 65.576875 64.0209375 64.125 65.0625 C61.47709021 67.4767707 59.70641444 69.84969642 58 73 C58.11443256 75.31026274 58.11443256 75.31026274 59 77 C68.15905254 76.40267049 76.86003399 71.83809625 83 65 C84.46425533 62.31520124 84.46425533 62.31520124 85 60 C83.35 60 81.7 60 80 60 C80 58.68 80 57.36 80 56 C74.79632364 56 71.07044456 59.99282862 67 63 Z " fill="#1053A1" transform="translate(315,21)"/>
<path d="M0 0 C-2.75421921 2.75421921 -5.81119812 3.02491535 -9.5 3.8125 C-16.50895753 5.3786343 -23.42005359 7.16402756 -30.31835938 9.16137695 C-36.82209454 11.02100999 -43.40174551 12.51558329 -50 14 C-49.73490148 19.13720032 -49.46830672 24.27432025 -49.20043945 29.41137695 C-49.10987818 31.1519165 -49.01969661 32.89247585 -48.92993164 34.63305664 C-48.43614048 44.2026741 -47.90885208 53.76642769 -47.25219727 63.32641602 C-46.97947173 67.29902115 -46.72039013 71.27235472 -46.46484375 75.24609375 C-46.42122208 75.92289688 -46.3776004 76.59970001 -46.33265686 77.29701233 C-46.2007891 79.343832 -46.06913935 81.39066563 -45.9375 83.4375 C-45.8457185 84.8626312 -45.75392168 86.28776141 -45.66210938 87.71289062 C-45.44123085 91.14191581 -45.22055562 94.57095403 -45 98 C-44.36199463 97.80365967 -43.72398926 97.60731934 -43.06665039 97.4050293 C-11.26535649 87.68788795 -11.26535649 87.68788795 3 88 C-1.34476102 90.3394867 -5.93462047 91.68323475 -10.65234375 93.0859375 C-20.31209025 95.96927246 -29.70102003 99.3807554 -39.07022095 103.08703613 C-49.69696293 107.29000594 -60.31911024 111.26152674 -71.25 114.625 C-72.27746338 114.9432373 -73.30492676 115.26147461 -74.36352539 115.58935547 C-92.69661649 121.07584588 -92.69661649 121.07584588 -101 119 C-102.485 118.01 -102.485 118.01 -104 117 C-104 115.68 -104 114.36 -104 113 C-101.11065764 112.16055319 -99.38168168 112.03488944 -96.26171875 112.2109375 C-88.88462618 112.29248571 -81.82102402 109.69446162 -74.8125 107.625 C-73.36293585 107.20727126 -71.91306754 106.79059649 -70.46289062 106.375 C-64.60457574 104.68693633 -58.7802931 102.94044615 -53 101 C-53.36948318 91.97657161 -53.74300555 82.95332202 -54.12164211 73.93027306 C-54.29734439 69.74021521 -54.47167078 65.55010967 -54.64282227 61.35986328 C-54.80813705 57.3137689 -54.97710589 53.26784194 -55.14857674 49.22200394 C-55.21326089 47.68075559 -55.2766428 46.13945201 -55.33868217 44.59809494 C-55.426004 42.43421252 -55.51801316 40.27057533 -55.61108398 38.10693359 C-55.66215805 36.87671478 -55.71323212 35.64649597 -55.76585388 34.3789978 C-55.98662628 31.19299812 -56.44258247 28.14169876 -57 25 C-57.0620775 23.37605252 -57.08712041 21.74994703 -57.0625 20.125 C-57.05347656 19.34382813 -57.04445312 18.56265625 -57.03515625 17.7578125 C-57.02355469 17.17773438 -57.01195312 16.59765625 -57 16 C-72.99713646 19.5758305 -88.3973326 24.62307629 -103.88232422 29.93432617 C-106.0123756 30.66241343 -108.15283928 31.36055002 -110.30126953 32.0324707 C-113.0361082 32.78758544 -113.0361082 32.78758544 -114.625 34.6875 C-115.07875 35.120625 -115.5325 35.55375 -116 36 C-118.1875 35.6875 -118.1875 35.6875 -120 35 C-119.875 32.25 -119.875 32.25 -119 29 C-114.47023582 25.41010888 -109.5927769 23.44634003 -104.1875 21.5 C-103.34348633 21.19449219 -102.49947266 20.88898437 -101.62988281 20.57421875 C-94.42777977 18.03388972 -87.20051784 16.17837803 -79.73388672 14.59375 C-76.42074383 13.8741962 -73.11917427 13.10951016 -69.81640625 12.34375 C-55.39581123 9.00853208 -40.97424059 5.92682548 -26.38232422 3.421875 C-24.04144942 3.00734009 -21.71032316 2.55833125 -19.37890625 2.09375 C-18.65630615 1.95098633 -17.93370605 1.80822266 -17.18920898 1.66113281 C-15.29451521 1.2837627 -13.40109628 0.90000659 -11.5078125 0.515625 C-7.58730118 -0.06066397 -3.9573202 -0.08697407 0 0 Z " fill="#1053A0" transform="translate(120,0)"/>
<path d="M0 0 C2.475 0.495 2.475 0.495 5 1 C5 12.88 5 24.76 5 37 C12.92 36.01 12.92 36.01 21 35 C23.64 34.67 26.28 34.34 29 34 C28 37 28 37 25.41015625 38.31640625 C24.30542969 38.72761719 23.20070312 39.13882813 22.0625 39.5625 C20.44021484 40.18318359 20.44021484 40.18318359 18.78515625 40.81640625 C14.24081572 42.23739199 9.67984126 43.15099443 5 44 C5.0407666 44.71655762 5.0815332 45.43311523 5.12353516 46.17138672 C5.301484 49.4054364 5.4634382 52.64009207 5.625 55.875 C5.68945312 57.00292969 5.75390625 58.13085938 5.8203125 59.29296875 C5.89765625 60.90751953 5.89765625 60.90751953 5.9765625 62.5546875 C6.02893066 63.54968262 6.08129883 64.54467773 6.13525391 65.56982422 C6 68 6 68 4 70 C2.68 70 1.36 70 0 70 C-0.87574369 67.37276893 -0.9884862 65.36674122 -0.9375 62.5625 C-0.8361966 56.63062313 -2.0049355 50.82823494 -3 45 C-3.91394531 44.86335938 -4.82789063 44.72671875 -5.76953125 44.5859375 C-10.26150258 43.77119058 -14.20010714 42.27734332 -17.9375 39.625 C-19.40919686 37.37416951 -19.21305693 35.6277021 -19 33 C-17.515 32.505 -17.515 32.505 -16 32 C-15.01 32.66 -14.02 33.32 -13 34 C-13 34.66 -13 35.32 -13 36 C-9.37 36.66 -5.74 37.32 -2 38 C-2.01047363 36.91992676 -2.02094727 35.83985352 -2.03173828 34.72705078 C-2.06788194 30.72773541 -2.09087984 26.72843454 -2.10986328 22.72900391 C-2.11993376 20.99655735 -2.13359089 19.26412784 -2.15087891 17.53173828 C-2.17508162 15.04455361 -2.18647239 12.55759325 -2.1953125 10.0703125 C-2.20563507 9.29317902 -2.21595764 8.51604553 -2.22659302 7.71536255 C-2.22699271 5.80874507 -2.1223214 3.90268964 -2 2 C-1.34 1.34 -0.68 0.68 0 0 Z " fill="#1053A0" transform="translate(191,34)"/>
<path d="M0 0 C1.20615977 4.22155918 0.59463546 6.01341136 -1 10 C-2.04179446 15.64463182 -2.69798468 20.7325061 0 26 C3.4424852 29.42593479 6.58259175 29.47358455 11.3125 29.6875 C12.58738281 29.75324219 13.86226562 29.81898437 15.17578125 29.88671875 C18.78677783 29.99368392 22.38769046 30.02336552 26 30 C25.505 31.485 25.505 31.485 25 33 C20.23768308 35.1867033 15.70142805 35.36591259 10.5625 35.375 C9.83740234 35.39949219 9.11230469 35.42398438 8.36523438 35.44921875 C2.79224461 35.47926182 -0.50541917 34.35283477 -5 31 C-7.96043663 26.64174896 -8.44216757 22.82604756 -8.6875 17.625 C-8.78611328 15.75714844 -8.78611328 15.75714844 -8.88671875 13.8515625 C-8.92410156 12.91054687 -8.96148437 11.96953125 -9 11 C-14.25270297 16.53895382 -18.78442242 22.33268978 -23.02905273 28.65698242 C-24.57540798 30.95968823 -26.03245663 33.03245663 -28 35 C-29.32 35 -30.64 35 -32 35 C-34.24773864 30.50452273 -33.49802329 24.44660534 -33.6875 19.5 C-33.74744141 18.23800781 -33.80738281 16.97601563 -33.86914062 15.67578125 C-33.91619141 14.47308594 -33.96324219 13.27039063 -34.01171875 12.03125 C-34.05772217 10.92330078 -34.10372559 9.81535156 -34.15112305 8.67382812 C-34 6 -34 6 -32 4 C-30 4 -30 4 -28 5 C-25.39095252 10.08764259 -25.801955 15.43273495 -26 21 C-25.34 21 -24.68 21 -24 21 C-23.74347656 20.26523438 -23.48695313 19.53046875 -23.22265625 18.7734375 C-19.65419837 10.67885253 -9.41866925 -0.775267 0 0 Z " fill="#1053A0" transform="translate(157,68)"/>
</svg>
