<?xml version="1.0" encoding="UTF-8"?>
<svg version="1.1" xmlns="http://www.w3.org/2000/svg" width="512" height="512">
<path d="M0 0 C3.40581958 3.23902589 5.64855055 6.82605572 7.984375 10.87890625 C9.76355141 13.83486076 12.00915119 15.95463866 14.47265625 18.3515625 C19.90896696 26.35044391 20.73905817 34.28727967 19.04199219 43.75390625 C16.79597756 54.44156083 13.91428642 64.98821802 10.47265625 75.3515625 C12.14328125 76.00125 12.14328125 76.00125 13.84765625 76.6640625 C17.47265625 78.3515625 17.47265625 78.3515625 19.47265625 81.3515625 C20.54656324 88.85642411 19.37172996 95.83794956 15.47265625 102.3515625 C13.38887879 104.7737725 11.29538873 106.82877261 8.47265625 108.3515625 C7.15265625 108.3515625 5.83265625 108.3515625 4.47265625 108.3515625 C4.36050781 109.20814453 4.36050781 109.20814453 4.24609375 110.08203125 C3.38919089 115.36626554 1.95420344 119.5648005 -0.54296875 124.30859375 C-3.94552239 131.55789193 -4.62709055 137.91363908 -4.65234375 145.8515625 C-4.72582031 147.06714844 -4.79929687 148.28273437 -4.875 149.53515625 C-4.95119699 157.46811003 -2.93929792 163.023587 2.5045166 168.72119141 C11.17127111 176.58673592 23.05011753 179.9276949 33.84765625 183.8515625 C37.27607807 185.12835407 40.70010576 186.41557444 44.12002563 187.71496582 C46.23349964 188.51479702 48.35244089 189.30037801 50.47738647 190.06921387 C57.57839229 192.71276958 62.93847154 195.12573291 66.66357422 202.06079102 C68.70830952 206.5737037 70.09580987 211.23775268 71.41796875 216.00390625 C71.67391815 216.90347549 71.92986755 217.80304474 72.193573 218.72987366 C72.72994476 220.62053852 73.26253573 222.51227972 73.79150391 224.4050293 C74.5950004 227.27956113 75.40971277 230.15072174 76.2265625 233.02148438 C76.74935555 234.86960576 77.27151218 236.71790732 77.79296875 238.56640625 C78.03258331 239.41355698 78.27219788 240.2607077 78.51907349 241.13352966 C78.74626068 241.94789993 78.97344788 242.7622702 79.20751953 243.60131836 C79.4041922 244.3033287 79.60086487 245.00533905 79.80349731 245.72862244 C80.78615776 249.58041208 81.61032275 253.47106176 82.47265625 257.3515625 C1.95265625 257.3515625 -78.56734375 257.3515625 -161.52734375 257.3515625 C-156.87874193 238.75715523 -156.87874193 238.75715523 -155.08984375 232.4140625 C-154.88302979 231.67881348 -154.67621582 230.94356445 -154.46313477 230.18603516 C-154.03444291 228.66708393 -153.60436432 227.14852335 -153.17285156 225.63037109 C-152.52045543 223.32724495 -151.87942793 221.02112327 -151.23828125 218.71484375 C-145.59855438 198.65001595 -145.59855438 198.65001595 -135.52734375 192.3515625 C-131.9875523 190.68420208 -128.35427492 189.37179938 -124.66796875 188.06640625 C-122.56067178 187.28070657 -120.45391739 186.49355039 -118.34765625 185.70507812 C-115.0709253 184.49378285 -111.79137178 183.29406639 -108.50097656 182.12036133 C-88.97810592 175.29485858 -88.97810592 175.29485858 -75.52734375 160.3515625 C-74.13490232 155.37899792 -74.09232553 150.98046043 -74.40234375 145.8515625 C-74.40621094 144.63597656 -74.41007812 143.42039063 -74.4140625 142.16796875 C-74.6428991 134.22649107 -76.42499454 128.27267291 -80.12011719 121.25317383 C-82.13502994 117.09855237 -82.93147003 112.90280488 -83.52734375 108.3515625 C-84.39359375 108.3309375 -85.25984375 108.3103125 -86.15234375 108.2890625 C-90.91511497 106.9660705 -92.86278266 104.39949453 -95.52734375 100.3515625 C-98.81750879 94.49827263 -99.65415968 87.95739166 -98.52734375 81.3515625 C-96.00163742 77.93844583 -94.52821071 76.68518482 -90.52734375 75.3515625 C-90.85347656 74.8153125 -91.17960937 74.2790625 -91.515625 73.7265625 C-99.13041345 60.0693608 -100.69180489 42.21366003 -97.40234375 27.0390625 C-93.41507062 13.32582406 -86.02125226 4.76993307 -73.70703125 -2.078125 C-65.38474854 -6.18814668 -56.6859137 -8.37420168 -47.52734375 -9.6484375 C-46.67914063 -9.7721875 -45.8309375 -9.8959375 -44.95703125 -10.0234375 C-28.80679942 -11.95182339 -13.17454787 -10.12260225 0 0 Z " fill="#17ABE7" transform="translate(295.52734375,107.6484375)"/>
<path d="M0 0 C12.54 0 25.08 0 38 0 C39.09461252 53.63601336 20.08114177 105.38469897 -15 146 C-15.77988281 146.91007813 -16.55976563 147.82015625 -17.36328125 148.7578125 C-19.52916276 151.22066132 -21.74344694 153.61995399 -24 156 C-24.46841309 156.49564453 -24.93682617 156.99128906 -25.41943359 157.50195312 C-33.36173927 165.84733145 -41.76105198 173.13206378 -51 180 C-51.55768066 180.4237793 -52.11536133 180.84755859 -52.68994141 181.28417969 C-62.24916887 188.5421633 -72.35342137 194.47749079 -83 200 C-84.12317627 200.58612061 -84.12317627 200.58612061 -85.26904297 201.18408203 C-116.58441015 217.31911338 -150.64086116 224.45896006 -185.6875 224.3125 C-186.61642059 224.31034485 -187.54534119 224.3081897 -188.50241089 224.30596924 C-201.89069476 224.25610813 -214.88139636 223.89233116 -228 221 C-228.97598145 220.79600586 -229.95196289 220.59201172 -230.95751953 220.38183594 C-268.53786127 212.43181445 -302.87513081 196.15637307 -332 171 C-333.36511719 169.83017578 -333.36511719 169.83017578 -334.7578125 168.63671875 C-337.22066132 166.47083724 -339.61995399 164.25655306 -342 162 C-342.49564453 161.53158691 -342.99128906 161.06317383 -343.50195312 160.58056641 C-351.84087657 152.64440384 -359.16704751 144.25819778 -366 135 C-366.45568359 134.38382813 -366.91136719 133.76765625 -367.38085938 133.1328125 C-368.74189645 131.2822628 -370.09280052 129.42495008 -371.4375 127.5625 C-371.83864014 127.00763916 -372.23978027 126.45277832 -372.65307617 125.88110352 C-375.37594963 122.04675921 -377.72125219 118.10589866 -380 114 C-388.16984666 117.98542452 -388.16984666 117.98542452 -396.125 122.375 C-399 124 -399 124 -401 124 C-400.4005409 116.46326897 -399.19577041 109.13551898 -397.75 101.71875 C-397.53182617 100.58344849 -397.31365234 99.44814697 -397.08886719 98.27844238 C-396.63039435 95.89810587 -396.16975056 93.51818655 -395.70703125 91.13867188 C-394.9969194 87.48414598 -394.29484428 83.82814041 -393.59375 80.171875 C-393.14630516 77.85407553 -392.69840485 75.53636393 -392.25 73.21875 C-391.93434082 71.57513489 -391.93434082 71.57513489 -391.61230469 69.89831543 C-391.41540039 68.88966431 -391.21849609 67.88101318 -391.015625 66.84179688 C-390.75700684 65.50804016 -390.75700684 65.50804016 -390.49316406 64.14733887 C-390 62 -390 62 -389 60 C-383.10458055 60.61036802 -377.90549653 62.22746057 -372.33203125 64.203125 C-371.41596603 64.52279236 -370.49990082 64.84245972 -369.55607605 65.17181396 C-367.62281735 65.847971 -365.69064932 66.52725361 -363.75952148 67.20947266 C-360.8416385 68.23971185 -357.92021455 69.25933004 -354.99804688 70.27734375 C-345.54488095 73.58599726 -336.16571117 76.94883033 -327 81 C-329.3190653 83.41972906 -331.4655104 85.48258388 -334.3828125 87.140625 C-334.99253906 87.48867188 -335.60226562 87.83671875 -336.23046875 88.1953125 C-336.85566406 88.54335938 -337.48085938 88.89140625 -338.125 89.25 C-338.75792969 89.61351562 -339.39085937 89.97703125 -340.04296875 90.3515625 C-344.7324953 93 -344.7324953 93 -347 93 C-318.57160106 138.80130941 -277.60178054 169.32271826 -224.80859375 181.80859375 C-211.92424484 184.56976243 -199.43586393 185.37153338 -186.3125 185.3125 C-185.47206146 185.31067719 -184.63162292 185.30885437 -183.76571655 185.30697632 C-171.59562636 185.26250336 -159.88203752 184.83487292 -148 182 C-147.27570801 181.8443457 -146.55141602 181.68869141 -145.80517578 181.52832031 C-98.12097372 171.25093368 -56.64510779 141.51803008 -30 101 C-29.55769043 100.3287207 -29.11538086 99.65744141 -28.65966797 98.96582031 C-9.11804764 68.79811997 -1.96547145 35.37848616 0 0 Z " fill="#C859ED" transform="translate(442,256)"/>
<path d="M0 0 C3.01467429 2.70338169 5.95395997 5.48145067 8.87890625 8.28125 C9.37632324 8.75143555 9.87374023 9.22162109 10.38623047 9.70605469 C20.64089545 19.43695104 29.05993405 30.27794648 37.31640625 41.71875 C37.91799561 42.55092041 37.91799561 42.55092041 38.53173828 43.39990234 C41.25479073 47.2342639 43.60010372 51.17525273 45.87890625 55.28125 C54.04875291 51.29582548 54.04875291 51.29582548 62.00390625 46.90625 C64.87890625 45.28125 64.87890625 45.28125 66.87890625 45.28125 C66.27944715 52.81798103 65.07467666 60.14573102 63.62890625 67.5625 C63.41073242 68.69780151 63.19255859 69.83310303 62.96777344 71.00280762 C62.5093006 73.38314413 62.04865681 75.76306345 61.5859375 78.14257812 C60.87582565 81.79710402 60.17375053 85.45310959 59.47265625 89.109375 C59.02521141 91.42717447 58.5773111 93.74488607 58.12890625 96.0625 C57.9184668 97.15824341 57.70802734 98.25398682 57.49121094 99.38293457 C57.19585449 100.89591125 57.19585449 100.89591125 56.89453125 102.43945312 C56.72211914 103.32862427 56.54970703 104.21779541 56.37207031 105.13391113 C55.87890625 107.28125 55.87890625 107.28125 54.87890625 109.28125 C49.34997204 108.58716584 44.33283821 106.88043204 39.08984375 105.078125 C38.15016754 104.75845764 37.21049133 104.43879028 36.24234009 104.10943604 C34.25632135 103.43249783 32.27109651 102.75322657 30.28662109 102.07177734 C27.28701873 101.04261092 24.28438469 100.02271242 21.28125 99.00390625 C11.67654878 95.72939916 2.15122451 92.42362432 -7.12109375 88.28125 C-4.80202845 85.86152094 -2.65558335 83.79866612 0.26171875 82.140625 C0.87144531 81.79257813 1.48117187 81.44453125 2.109375 81.0859375 C3.04716797 80.56386719 3.04716797 80.56386719 4.00390625 80.03125 C4.63683594 79.66773438 5.26976562 79.30421875 5.921875 78.9296875 C10.61140155 76.28125 10.61140155 76.28125 12.87890625 76.28125 C-15.72513666 30.19695865 -57.05939826 -0.28761366 -110.12109375 -12.71875 C-110.84925293 -12.89809082 -111.57741211 -13.07743164 -112.32763672 -13.26220703 C-135.07195303 -18.66270845 -163.44524174 -18.12886243 -186.12109375 -12.71875 C-186.84538574 -12.5630957 -187.56967773 -12.40744141 -188.31591797 -12.24707031 C-236.00012003 -1.96968368 -277.47598596 27.76321992 -304.12109375 68.28125 C-304.78455811 69.28816895 -304.78455811 69.28816895 -305.46142578 70.31542969 C-322.71720107 96.95431887 -332.20109078 128.66929885 -333.68359375 160.28125 C-333.82796875 163.25125 -333.97234375 166.22125 -334.12109375 169.28125 C-346.66109375 169.28125 -359.20109375 169.28125 -372.12109375 169.28125 C-373.21570627 115.64523664 -354.20223552 63.89655103 -319.12109375 23.28125 C-318.34121094 22.37117188 -317.56132812 21.46109375 -316.7578125 20.5234375 C-314.59193099 18.06058868 -312.37764681 15.66129601 -310.12109375 13.28125 C-309.65268066 12.78560547 -309.18426758 12.28996094 -308.70166016 11.77929688 C-300.75935448 3.43391855 -292.36004177 -3.85081378 -283.12109375 -10.71875 C-282.56341309 -11.1425293 -282.00573242 -11.56630859 -281.43115234 -12.00292969 C-254.50809543 -32.44465542 -222.99711875 -44.84718856 -190.12109375 -51.71875 C-189.30108887 -51.89954102 -188.48108398 -52.08033203 -187.63623047 -52.26660156 C-122.09015544 -66.26349213 -49.60048584 -43.66982197 0 0 Z " fill="#93F9E5" transform="translate(404.12109375,86.71875)"/>
<path d="M0 0 C3.40581958 3.23902589 5.64855055 6.82605572 7.984375 10.87890625 C9.76355141 13.83486076 12.00915119 15.95463866 14.47265625 18.3515625 C19.90896696 26.35044391 20.73905817 34.28727967 19.04199219 43.75390625 C16.79597756 54.44156083 13.91428642 64.98821802 10.47265625 75.3515625 C11.58640625 75.7846875 12.70015625 76.2178125 13.84765625 76.6640625 C17.47265625 78.3515625 17.47265625 78.3515625 19.47265625 81.3515625 C20.54656324 88.85642411 19.37172996 95.83794956 15.47265625 102.3515625 C13.38887879 104.7737725 11.29538873 106.82877261 8.47265625 108.3515625 C7.15265625 108.3515625 5.83265625 108.3515625 4.47265625 108.3515625 C4.36050781 109.20814453 4.36050781 109.20814453 4.24609375 110.08203125 C3.38407814 115.39779417 1.93972829 119.54601096 -0.61328125 124.296875 C-4.13727477 131.74327701 -3.88905494 137.96067007 -3.52734375 146.0390625 C-3.50094181 160.10689451 -3.50094181 160.10689451 -7.01953125 163.9609375 C-9.85384009 166.19640026 -13.02407174 167.6695158 -16.29150391 169.16992188 C-21.65960102 172.00695944 -26.28951358 176.22249373 -31.04052734 179.97436523 C-31.81090332 180.55645752 -32.5812793 181.1385498 -33.375 181.73828125 C-34.05570557 182.26639404 -34.73641113 182.79450684 -35.43774414 183.33862305 C-38.24585171 184.69986131 -39.60002557 184.3231194 -42.52734375 183.3515625 C-44.52514648 182.20336914 -44.52514648 182.20336914 -46.4609375 180.76171875 C-47.54870483 179.96604492 -47.54870483 179.96604492 -48.65844727 179.15429688 C-50.22620777 177.971382 -51.79037976 176.78369925 -53.35131836 175.59179688 C-57.05529753 172.78866433 -60.54537512 170.21296612 -64.78515625 168.28515625 C-68.9001218 166.28855791 -72.32586392 164.51229128 -74.52734375 160.3515625 C-75.6748197 154.36726966 -75.63180735 148.36858558 -75.35961914 142.29882812 C-75.03501821 134.03546268 -76.14677662 128.56692305 -80.08056641 121.24658203 C-82.15150514 117.10260776 -82.92991779 112.91466079 -83.52734375 108.3515625 C-84.39359375 108.3309375 -85.25984375 108.3103125 -86.15234375 108.2890625 C-90.91511497 106.9660705 -92.86278266 104.39949453 -95.52734375 100.3515625 C-98.81750879 94.49827263 -99.65415968 87.95739166 -98.52734375 81.3515625 C-96.00163742 77.93844583 -94.52821071 76.68518482 -90.52734375 75.3515625 C-90.85347656 74.8153125 -91.17960938 74.2790625 -91.515625 73.7265625 C-99.13041345 60.0693608 -100.69180489 42.21366003 -97.40234375 27.0390625 C-93.41507062 13.32582406 -86.02125226 4.76993307 -73.70703125 -2.078125 C-65.38474854 -6.18814668 -56.6859137 -8.37420168 -47.52734375 -9.6484375 C-46.67914063 -9.7721875 -45.8309375 -9.8959375 -44.95703125 -10.0234375 C-28.80679942 -11.95182339 -13.17454787 -10.12260225 0 0 Z " fill="#F9A261" transform="translate(295.52734375,107.6484375)"/>
<path d="M0 0 C3.40581958 3.23902589 5.64855055 6.82605572 7.984375 10.87890625 C9.76355141 13.83486076 12.00915119 15.95463866 14.47265625 18.3515625 C19.90896696 26.35044391 20.73905817 34.28727967 19.04199219 43.75390625 C14.47136898 65.5032045 14.47136898 65.5032045 10.47265625 75.3515625 C9.48265625 75.8465625 9.48265625 75.8465625 8.47265625 76.3515625 C8.04855469 75.43375 7.62445313 74.5159375 7.1875 73.5703125 C4.06594681 66.98415857 1.08645897 61.46887004 -4.015625 56.171875 C-6.48956812 53.19291507 -7.41109879 50.02860473 -8.52734375 46.3515625 C-12.7146871 46.88328864 -14.89786969 48.12947294 -18.08984375 50.8515625 C-39.20944807 68.3515625 -39.20944807 68.3515625 -45.52734375 68.3515625 C-45.31078125 67.289375 -45.09421875 66.2271875 -44.87109375 65.1328125 C-44.58944797 63.70580722 -44.30822037 62.27871937 -44.02734375 60.8515625 C-43.88425781 60.15546875 -43.74117187 59.459375 -43.59375 58.7421875 C-42.64457002 53.86069047 -42.39294329 49.32437951 -42.52734375 44.3515625 C-43.02476074 44.85800293 -43.52217773 45.36444336 -44.03466797 45.88623047 C-50.27242084 51.8660048 -56.74416313 55.13875248 -64.65234375 58.4765625 C-78.87090962 64.29541552 -78.87090962 64.29541552 -87.52734375 76.3515625 C-90.51640238 75.32129123 -91.4128982 74.5633816 -92.94140625 71.734375 C-99.31459651 54.58843732 -101.79194599 35.62726215 -94.23828125 18.4140625 C-87.81616899 5.77589506 -77.77469277 -1.29384758 -64.46484375 -5.9609375 C-58.88094891 -7.66228046 -53.30597357 -8.84445422 -47.52734375 -9.6484375 C-46.67914063 -9.7721875 -45.8309375 -9.8959375 -44.95703125 -10.0234375 C-28.80679942 -11.95182339 -13.17454787 -10.12260225 0 0 Z " fill="#363132" transform="translate(295.52734375,107.6484375)"/>
<path d="M0 0 C5.7665911 0.4669963 10.90059587 2.73740881 16.21875 4.859375 C17.19485229 5.24563049 18.17095459 5.63188599 19.17663574 6.02984619 C21.23538495 6.84714914 23.29285719 7.66767515 25.34912109 8.49121094 C28.48440541 9.7437699 31.62657803 10.97777001 34.76953125 12.2109375 C36.77388643 13.00929051 38.77780769 13.80873394 40.78125 14.609375 C41.71578003 14.97415955 42.65031006 15.33894409 43.61315918 15.71478271 C51.31485686 18.83324317 56.60005385 21.99096095 60.137146 29.79763794 C61.65902817 33.68211381 62.83077821 37.63464085 63.9453125 41.65234375 C64.2012619 42.55191299 64.4572113 43.45148224 64.72091675 44.37831116 C65.25728851 46.26897602 65.78987948 48.16071722 66.31884766 50.0534668 C67.12234415 52.92799863 67.93705652 55.79915924 68.75390625 58.66992188 C69.2766993 60.51804326 69.79885593 62.36634482 70.3203125 64.21484375 C70.67973434 65.48556984 70.67973434 65.48556984 71.04641724 66.78196716 C71.27360443 67.59633743 71.50079163 68.4107077 71.73486328 69.24975586 C71.93153595 69.9517662 72.12820862 70.65377655 72.33084106 71.37705994 C73.31350151 75.22884958 74.1376665 79.11949926 75 83 C42.66 83 10.32 83 -23 83 C-26.63 75.41 -30.26 67.82 -34 60 C-36.94920137 54.30781045 -36.94920137 54.30781045 -39.953125 48.64453125 C-41.13310176 45.66376906 -41.03890234 44.9312013 -40 42 C-38.87670898 40.35253906 -38.87670898 40.35253906 -37.49609375 38.765625 C-37.00302734 38.19199219 -36.50996094 37.61835938 -36.00195312 37.02734375 C-35.22754883 36.14755859 -35.22754883 36.14755859 -34.4375 35.25 C-33.91736328 34.64800781 -33.39722656 34.04601562 -32.86132812 33.42578125 C-31.58043726 31.94511841 -30.29103688 30.47182458 -29 29 C-25.15667916 29.79454714 -23.57769897 31.12260185 -20.875 34 C-18.22939276 36.89285588 -18.22939276 36.89285588 -15 39 C-14.89494141 38.33323242 -14.78988281 37.66646484 -14.68164062 36.97949219 C-13.83542671 33.28064023 -12.49422089 29.84319863 -11.09375 26.328125 C-10.80898804 25.60510193 -10.52422607 24.88207886 -10.23083496 24.137146 C-9.63099674 22.61684086 -9.02910961 21.0973427 -8.42529297 19.57861328 C-7.49834969 17.24584678 -6.57878422 14.91027054 -5.66015625 12.57421875 C-5.07595339 11.09618312 -4.49133267 9.61831257 -3.90625 8.140625 C-3.63018921 7.43963684 -3.35412842 6.73864868 -3.06970215 6.01641846 C-1.11563974 1.11563974 -1.11563974 1.11563974 0 0 Z " fill="#17ABE7" transform="translate(303,282)"/>
<path d="M0 0 C3.35875739 0.61783793 5.4433266 1.83515244 8.16015625 3.87890625 C8.94890137 4.46728271 9.73764648 5.05565918 10.55029297 5.66186523 C11.79383545 6.60267944 11.79383545 6.60267944 13.0625 7.5625 C13.91215332 8.19422119 14.76180664 8.82594238 15.63720703 9.47680664 C19.29295919 12.19649952 22.93144517 14.93374814 26.51953125 17.7421875 C27.93298828 18.82886719 27.93298828 18.82886719 29.375 19.9375 C30.16648438 20.56527344 30.95796875 21.19304687 31.7734375 21.83984375 C34.68530357 23.35707923 35.8823353 22.87947587 39 22 C41.07116898 20.8642194 41.07116898 20.8642194 43.00390625 19.375 C43.73915527 18.83697754 44.4744043 18.29895508 45.23193359 17.74462891 C46.38556396 16.8810376 46.38556396 16.8810376 47.5625 16 C48.35736816 15.41782715 49.15223633 14.8356543 49.97119141 14.23583984 C53.5912389 11.57586963 57.17695145 8.8798751 60.70703125 6.1015625 C61.249646 5.67875 61.79226074 5.2559375 62.35131836 4.8203125 C63.7829949 3.69717705 65.20061996 2.55619531 66.6171875 1.4140625 C69 0 69 0 70.97412109 0.24145508 C74.37452739 1.51466096 76.42029434 4.38731305 78.75 7.0625 C79.25660156 7.63033203 79.76320313 8.19816406 80.28515625 8.78320312 C81.53113136 10.1819865 82.76660973 11.59010733 84 13 C78.66666667 26.33333333 73.33333333 39.66666667 68 53 C63.93347371 51.2431893 61.66797922 48.63709461 58.78125 45.36328125 C57.11883603 43.81246834 57.11883603 43.81246834 55.07421875 43.9609375 C52.03364063 45.48408963 50.42895725 47.67130129 48.3125 50.3125 C47.52488281 51.27800781 46.73726563 52.24351562 45.92578125 53.23828125 C44.15511207 55.77755734 43.42025844 57.02408777 43 60 C44.10466728 62.6929876 45.26711713 65.15971575 46.62109375 67.72265625 C46.99984146 68.46454697 47.37858917 69.20643768 47.76881409 69.97080994 C48.9804715 72.34068236 50.20784689 74.70192155 51.4375 77.0625 C52.66148499 79.42762226 53.88193936 81.79439986 55.09547424 84.16490173 C55.85121625 85.6396144 56.61335088 87.11107189 57.38243103 88.57887268 C60 93.66474324 60 93.66474324 60 97 C44.16 97 28.32 97 12 97 C12.93862158 92.30689211 14.44482316 88.81260115 16.6328125 84.65234375 C17.36360177 83.22868011 18.0940607 81.80484686 18.82421875 80.38085938 C19.97639238 78.15113987 21.1323025 75.92352158 22.29443359 73.69897461 C23.41774194 71.54284005 24.52609042 69.3795272 25.6328125 67.21484375 C25.9848172 66.55121323 26.3368219 65.8875827 26.69949341 65.20384216 C28.52481896 61.64755632 28.52481896 61.64755632 28.85327148 57.73754883 C27.36885464 54.71477495 25.13158245 52.27304391 22.9375 49.75 C22.46505859 49.19570313 21.99261719 48.64140625 21.50585938 48.0703125 C20.34341033 46.708251 19.17252145 45.35340044 18 44 C14.12862263 44.54685375 12.48795236 46.24587644 9.875 49.0625 C8.61987331 50.40998507 7.33492972 51.73152782 6 53 C5.34 53 4.68 53 4 53 C2.01666987 48.12846205 0.04143207 43.25374968 -1.92651367 38.37597656 C-2.5965212 36.71851287 -3.2686967 35.06192377 -3.94311523 33.40625 C-4.91446816 31.0205212 -5.8778734 28.63171239 -6.83984375 26.2421875 C-7.14091537 25.50757294 -7.441987 24.77295837 -7.75218201 24.01608276 C-9.33902831 20.05046407 -10.74616195 16.3089793 -11 12 C-9.24345903 9.55689225 -7.67807288 7.69708469 -5.5625 5.625 C-5.03333984 5.07972656 -4.50417969 4.53445313 -3.95898438 3.97265625 C-2.65478412 2.63320734 -1.32936555 1.31447666 0 0 Z " fill="#217AC3" transform="translate(220,268)"/>
<path d="M0 0 C3.40395759 0.45724803 5.19597605 1.76946224 7.6875 4.0625 C8.37199219 4.68382812 9.05648438 5.30515625 9.76171875 5.9453125 C10.50035156 6.62335938 11.23898437 7.30140625 12 8 C13.66466311 9.48142112 15.33129642 10.96063163 17 12.4375 C18.33361301 13.6246859 19.66704985 14.81206989 21 16 C17.56517814 20.68938446 14.09892735 25.12564481 10.00390625 29.26171875 C8.78721672 30.97847949 8.78721672 30.97847949 9.21240234 33.1472168 C10.22219507 36.80482003 11.85920266 40.031417 13.59765625 43.3828125 C13.95137802 44.07889618 14.30509979 44.77497986 14.66954041 45.49215698 C15.79476992 47.70609842 16.92765911 49.91597144 18.0625 52.125 C19.56025398 55.0408301 21.05009054 57.96050368 22.53515625 60.8828125 C22.88199966 61.55160431 23.22884308 62.22039612 23.5861969 62.90945435 C25.05833232 65.80772023 26 67.70137611 26 71 C10.16 71 -5.68 71 -22 71 C-21.06137842 66.30689211 -19.55517684 62.81260115 -17.3671875 58.65234375 C-16.63639823 57.22868011 -15.9059393 55.80484686 -15.17578125 54.38085938 C-14.02360762 52.15113987 -12.8676975 49.92352158 -11.70556641 47.69897461 C-10.58225806 45.54284005 -9.47390958 43.3795272 -8.3671875 41.21484375 C-8.0151828 40.55121323 -7.6631781 39.8875827 -7.30050659 39.20384216 C-5.47977409 35.65376726 -5.47977409 35.65376726 -5.13305664 31.7512207 C-6.07982728 29.83874934 -7.10269182 28.3762163 -8.50390625 26.765625 C-8.99697266 26.19199219 -9.49003906 25.61835938 -9.99804688 25.02734375 C-10.51431641 24.44082031 -11.03058594 23.85429687 -11.5625 23.25 C-12.08263672 22.64800781 -12.60277344 22.04601562 -13.13867188 21.42578125 C-14.41956274 19.94511841 -15.70896312 18.47182458 -17 17 C-12.17645439 11.03403569 -6.75929081 6.05429288 -1 1 C-0.67 0.67 -0.34 0.34 0 0 Z " fill="#CD4457" transform="translate(254,294)"/>
<path d="M0 0 C2.55505354 2.52487833 4.88356111 5.07038552 7.125 7.875 C13.17312866 14.84660637 21.45159698 19.43806153 30.6640625 20.37109375 C43.97495908 20.59425474 53.09195344 17.67327342 62.93359375 8.2265625 C65.34824936 5.62475967 67.20124418 3.05006422 69 0 C69.33 0 69.66 0 70 0 C72.1866679 24.63966223 72.1866679 24.63966223 68.93212891 31.12939453 C65.99224615 34.38727097 62.19027842 36.02622062 58.25195312 37.81835938 C52.87094413 40.64187234 48.24132383 44.86799103 43.48706055 48.62280273 C42.716604 49.20489502 41.94614746 49.7869873 41.15234375 50.38671875 C40.47163818 50.91483154 39.79093262 51.44294434 39.08959961 51.98706055 C36.28149204 53.34829881 34.92731818 52.9715569 32 52 C30.00219727 50.85180664 30.00219727 50.85180664 28.06640625 49.41015625 C27.34114746 48.87970703 26.61588867 48.34925781 25.86865234 47.80273438 C24.30146941 46.6201301 22.73811652 45.43243669 21.17822266 44.24023438 C17.46243439 41.42617609 13.96832717 38.85351829 9.70703125 36.93359375 C5.56612871 34.93515595 2.13990241 33.2354645 0 29 C-1.70296322 19.48561854 -0.84954315 9.57276421 0 0 Z " fill="#F8A262" transform="translate(221,239)"/>
<path d="M0 0 C2.57277285 2.50594758 4.88496931 5.07214753 7.125 7.875 C13.17312866 14.84660637 21.45159698 19.43806153 30.6640625 20.37109375 C43.97495908 20.59425474 53.09195344 17.67327342 62.93359375 8.2265625 C65.34824936 5.62475967 67.20124418 3.05006422 69 0 C69.33 0 69.66 0 70 0 C71.35517525 10.97524644 71.35517525 10.97524644 68.34765625 15.46875 C58.70854799 24.27777688 45.72754275 29.65935537 32.65625 29.21875 C19.80538509 28.16044348 9.08636234 22.08636234 0 13 C-0.07258946 10.81360547 -0.08373783 8.62499611 -0.0625 6.4375 C-0.05347656 5.23996094 -0.04445312 4.04242188 -0.03515625 2.80859375 C-0.02355469 1.88175781 -0.01195312 0.95492187 0 0 Z " fill="#D29965" transform="translate(221,239)"/>
</svg>
